<?xml version="1.0" encoding="utf-8"?>
<svg xmlns="http://www.w3.org/2000/svg" viewBox="0 0 500 500" xmlns:bx="https://boxy-svg.com">
  <defs>
    <bx:export>
      <bx:file format="png" href="#object-0" excluded="true"/>
      <bx:file format="png" href="#object-1" path="Untitled 2.png"/>
      <bx:file format="png" href="#object-0" path="Untitled 3.png"/>
      <bx:file format="png" href="#object-2" path="Untitled 4.png"/>
    </bx:export>
  </defs>
  <path d="M 468.717 243.08 L 468.717 240 C 463.717 240.5 459.717 244.81 459.717 250 C 459.717 255.19 463.717 259.5 468.717 260 L 468.717 256.92 C 465.717 256.44 462.717 253.52 462.717 250 C 462.717 246.48 465.717 243.56 468.717 243.08" style="fill: rgb(26, 196, 225);" id="object-1"/>
  <path d="M 470.717 256.92 L 470.717 260 C 475.717 259.53 479.247 256 479.717 251 L 476.687 251 C 476.257 254 473.717 256.49 470.717 256.92" style="fill: rgb(199, 242, 132);" id="object-0"/>
  <path d="M 476.687 249 L 479.717 249 C 479.247 244 475.717 240.47 470.717 240 L 470.717 243.08 C 473.717 243.51 476.257 246 476.687 249" style="fill: rgb(145, 228, 160);" id="object-2"/>
</svg>